<svg xmlns="http://www.w3.org/2000/svg" viewBox="0 0 64 64" width="64" height="64" role="img">
  <defs>
    <linearGradient id="lg-expense-logger" x1="32" y1="3" x2="32" y2="61" gradientUnits="userSpaceOnUse">
      <stop stop-color="#fb7185"/><stop offset="1" stop-color="#be123c"/>
    </linearGradient>
  </defs>
  <rect x="3" y="3" width="58" height="58" rx="15" fill="url(#lg-expense-logger)"/>
  <rect x="3" y="3" width="58" height="58" rx="15" fill="#fff" opacity=".08"/>
  <path fill="#fff" d="M18 24a4 4 0 0 1 4-4h20a4 4 0 0 1 4 4v16a4 4 0 0 1-4 4H22a4 4 0 0 1-4-4V24z"/><path fill="#be123c" d="M38 30a4 4 0 0 0 0 8h8v-8h-8z"/><circle cx="40.5" cy="34" r="1.8" fill="#fff"/><rect x="22" y="16" width="18" height="7" rx="3.5" fill="#fff" opacity=".6"/>
</svg>
